<?xml version="1.0" standalone="no"?>
<!DOCTYPE svg PUBLIC "-//W3C//DTD SVG 20010904//EN"
 "http://www.w3.org/TR/2001/REC-SVG-20010904/DTD/svg10.dtd">
<svg version="1.0" xmlns="http://www.w3.org/2000/svg"
 width="260.000000pt" height="260.000000pt" viewBox="0 0 260.000000 260.000000"
 preserveAspectRatio="xMidYMid meet">
<metadata>
Created by potrace 1.14, written by Peter Selinger 2001-2017
</metadata>
<g transform="translate(0.000000,260.000000) scale(0.100000,-0.100000)"
fill="#000000" stroke="none">
<path d="M1278 2385 c-2 -1 -34 -5 -73 -8 -143 -13 -227 -35 -353 -93 -121
-56 -210 -116 -298 -201 -320 -309 -422 -763 -263 -1173 222 -574 882 -851
1442 -603 598 264 831 997 494 1553 -148 244 -419 441 -682 495 -22 5 -42 9
-45 10 -5 2 -122 14 -182 19 -21 2 -39 2 -40 1z"/>
</g>
</svg>
